<?xml version="1.0" standalone="no"?>
<!DOCTYPE svg PUBLIC "-//W3C//DTD SVG 20010904//EN"
 "http://www.w3.org/TR/2001/REC-SVG-20010904/DTD/svg10.dtd">
<svg version="1.0" xmlns="http://www.w3.org/2000/svg"
 width="1594.000000pt" height="1195.000000pt" viewBox="0 0 1594.000000 1195.000000"
 preserveAspectRatio="xMidYMid meet">
<metadata>
Created by potrace 1.16, written by Peter Selinger 2001-2019
</metadata>
<g transform="translate(0.000000,1195.000000) scale(0.100000,-0.100000)"
fill="#000000" stroke="none">
<path d="M4170 7841 c0 -5 -12 -11 -27 -13 -20 -2 -28 -9 -28 -23 -1 -36 -20
-59 -45 -52 -18 5 -21 2 -17 -14 3 -10 1 -19 -4 -19 -4 0 -6 -6 -3 -14 3 -9
-3 -17 -17 -21 -27 -9 -43 -23 -51 -47 -4 -9 -17 -18 -30 -20 -13 -2 -27 -13
-33 -26 -5 -13 -21 -25 -35 -28 -47 -10 -51 -14 -48 -36 2 -18 -3 -24 -27 -28
-24 -4 -31 -11 -33 -33 -3 -22 -8 -27 -31 -27 -34 0 -72 -26 -54 -38 9 -6 7
-12 -7 -25 -11 -9 -24 -17 -29 -17 -5 0 -19 -16 -31 -35 -13 -21 -30 -35 -42
-35 -13 0 -24 -10 -31 -30 -8 -21 -18 -30 -34 -30 -14 0 -28 -10 -36 -27 -8
-15 -29 -31 -48 -37 -26 -9 -34 -17 -33 -34 0 -15 -5 -22 -17 -22 -10 0 -20
-8 -22 -17 -4 -17 -5 -17 -6 -1 -1 17 -2 17 -20 1 -11 -9 -17 -22 -14 -29 3
-8 0 -14 -6 -14 -6 0 -11 -7 -11 -16 0 -12 -7 -15 -30 -12 -26 4 -29 2 -25
-16 7 -29 -8 -48 -39 -49 -14 -1 -26 -8 -26 -14 0 -7 -5 -13 -10 -13 -6 0 -10
-8 -8 -17 2 -13 -5 -19 -22 -21 -33 -5 -50 -20 -43 -38 5 -13 -12 -18 -54 -17
-7 1 -14 -8 -14 -18 -1 -10 -2 -24 -3 -31 0 -6 -12 -13 -26 -15 -14 -2 -26 -8
-28 -13 -2 -5 -10 -6 -18 -3 -17 6 -19 -8 -3 -24 8 -8 5 -13 -10 -18 -12 -3
-21 -11 -21 -16 0 -5 -8 -9 -19 -9 -12 0 -20 -9 -24 -29 -4 -18 -14 -32 -28
-36 -28 -9 -59 -36 -53 -47 3 -4 -6 -12 -20 -18 -14 -5 -32 -21 -42 -35 -18
-28 -64 -35 -64 -10 0 13 11 19 32 16 22 -3 28 103 31 627 2 309 7 565 10 569
4 3 7 -1 7 -10 0 -9 5 -17 10 -17 6 0 10 20 10 45 0 25 -4 45 -10 45 -5 0 -10
7 -10 15 0 12 -14 15 -65 15 -65 0 -81 -10 -47 -29 16 -10 15 -10 -3 -11 -11
0 -30 -7 -43 -15 -12 -9 -30 -15 -39 -13 -11 2 -18 -3 -18 -13 0 -9 -12 -31
-27 -50 -16 -18 -28 -36 -28 -40 0 -4 -18 -18 -39 -30 -22 -12 -42 -30 -44
-40 -3 -12 -14 -19 -30 -19 -27 0 -52 -23 -43 -39 6 -9 -22 -24 -35 -18 -13 5
-40 -27 -34 -41 3 -8 -3 -16 -15 -19 -11 -3 -17 -9 -14 -14 3 -5 -7 -9 -21 -9
-21 0 -26 -4 -21 -16 4 -10 -1 -25 -10 -35 -19 -21 -44 -25 -44 -8 0 8 -5 8
-15 -1 -12 -10 -15 -10 -15 0 0 8 -3 10 -6 7 -4 -4 -2 -12 4 -20 16 -19 3 -57
-19 -57 -10 0 -21 -5 -24 -10 -4 -6 -11 -8 -16 -5 -5 4 -9 -5 -9 -19 0 -21 -5
-26 -24 -26 -26 0 -48 -21 -44 -41 2 -8 -14 -16 -40 -22 -39 -8 -43 -11 -38
-32 5 -18 1 -24 -19 -29 -14 -4 -25 -11 -25 -17 0 -6 -5 -7 -10 -4 -6 3 -13
-2 -17 -11 -7 -19 -39 -54 -49 -54 -11 0 -44 -42 -39 -50 3 -4 -8 -10 -24 -13
-20 -4 -31 -14 -35 -31 -3 -14 -16 -27 -29 -31 -49 -14 -67 -28 -56 -42 12
-14 11 -14 -28 -16 -22 -2 -42 -27 -36 -44 3 -7 -3 -16 -13 -20 -11 -3 -22
-11 -26 -17 -6 -7 -11 -6 -18 4 -7 12 -12 12 -21 3 -9 -9 -9 -16 1 -28 11 -13
10 -18 -6 -30 -10 -8 -28 -13 -40 -10 -17 4 -22 -2 -30 -33 -7 -30 -14 -38
-39 -42 -16 -3 -29 -9 -27 -13 7 -22 -1 -37 -24 -43 -34 -9 -68 -41 -51 -47 7
-3 -2 -8 -20 -12 -33 -8 -63 -32 -60 -50 1 -5 -14 -15 -33 -21 -23 -8 -36 -19
-38 -32 -4 -24 -19 -39 -47 -44 -12 -2 -24 -15 -30 -33 -6 -18 -18 -31 -31
-33 -11 -2 -28 -16 -38 -32 -9 -17 -25 -30 -34 -30 -27 0 -45 -16 -46 -41 -1
-17 -7 -24 -22 -25 -30 -2 -44 -12 -44 -34 0 -13 -9 -22 -27 -26 -51 -11 -55
-13 -48 -34 5 -15 0 -21 -22 -27 -15 -4 -32 -7 -38 -8 -5 0 -10 -10 -9 -23 1
-20 -7 -27 -28 -23 -5 0 -8 -4 -8 -9 0 -12 -64 -76 -98 -99 -11 -8 -23 -23
-25 -33 -3 -11 -14 -18 -30 -18 -14 0 -29 -5 -32 -10 -4 -6 -11 -8 -16 -5 -5
4 -9 1 -9 -4 0 -6 5 -11 10 -11 6 0 10 -4 10 -9 0 -11 -60 -33 -60 -23 0 4 -5
-1 -11 -11 -5 -9 -7 -22 -4 -28 4 -6 -2 -13 -14 -16 -12 -3 -21 -10 -21 -15 0
-5 -12 -9 -27 -8 -16 1 -34 2 -40 1 -10 -1 -13 -138 -13 -651 l0 -650 55 0
c30 0 55 4 55 9 0 5 13 12 30 16 30 7 41 29 18 38 -10 4 -10 6 0 6 6 1 12 7
12 15 0 8 10 14 25 14 13 -1 22 -4 19 -9 -3 -5 -1 -9 5 -9 17 0 23 20 11 35
-9 11 -7 18 9 34 12 12 27 21 35 21 8 0 17 11 20 25 5 18 17 27 47 35 33 9 40
15 37 33 -2 17 3 23 27 27 21 4 31 12 35 30 3 14 14 26 25 28 11 2 27 6 35 9
8 3 18 5 22 5 12 -3 9 13 -4 26 -8 8 -4 14 18 23 16 6 39 11 52 10 13 0 22 5
22 14 0 8 -4 15 -10 15 -5 0 -10 5 -10 10 0 6 9 10 21 10 12 0 17 4 14 11 -4
6 2 13 14 16 12 3 21 9 21 15 0 13 32 44 53 51 9 4 22 18 27 32 6 15 17 25 29
25 11 0 26 7 34 15 8 8 18 11 22 7 4 -4 4 3 1 16 -6 18 -3 22 13 22 34 0 51
11 51 35 0 23 24 40 41 30 5 -4 6 1 2 11 -5 13 -2 15 17 9 19 -6 22 -4 17 10
-9 22 19 49 52 50 22 0 26 5 29 32 3 26 9 33 32 38 16 4 29 10 29 13 -4 28 4
41 31 47 21 5 32 14 36 31 3 13 12 25 20 25 27 3 31 4 48 21 9 10 15 22 11 28
-5 9 10 15 60 22 12 2 20 11 20 24 1 31 31 57 60 51 25 -4 36 8 13 15 -20 7
22 58 48 58 13 0 23 3 23 8 -4 26 4 41 27 46 34 9 38 4 29 -41 -6 -34 -8 -36
-20 -19 -12 16 -14 15 -24 -21 -14 -51 -15 -1139 -1 -1148 6 -3 10 -17 10 -31
0 -23 3 -24 60 -24 33 0 60 4 60 9 0 5 14 11 31 15 24 4 30 10 27 24 -6 20 15
44 34 40 8 -2 12 6 11 20 -2 14 4 25 14 29 10 4 27 17 39 30 12 13 27 23 33
23 7 0 11 7 9 16 -2 10 5 18 15 20 24 3 47 23 47 40 0 7 18 18 41 24 33 9 40
15 37 33 -2 18 3 23 32 27 30 4 35 9 33 30 -2 18 4 28 22 36 18 9 25 9 28 0 3
-7 11 -4 23 8 14 13 15 20 7 23 -7 3 -13 9 -13 14 0 6 5 7 10 4 6 -3 10 3 10
14 0 16 6 21 29 21 25 0 31 5 36 30 4 19 13 30 24 30 22 0 41 19 41 42 0 14 8
18 35 18 19 0 35 3 34 8 -4 27 16 49 57 60 24 7 44 16 44 22 0 5 -4 10 -10 10
-5 0 -10 5 -10 10 0 6 9 10 20 10 26 0 72 29 64 41 -3 5 12 27 33 48 21 21 44
46 52 56 7 9 20 14 28 11 9 -4 19 6 28 28 11 26 22 35 42 38 22 2 28 8 27 26
0 15 5 22 17 22 10 0 29 5 43 12 21 9 24 16 19 36 -3 15 -2 23 4 19 20 -13 67
9 73 33 4 16 16 26 36 32 24 6 30 13 29 35 0 19 7 31 25 40 42 21 70 45 70 60
0 9 6 13 15 9 8 -3 15 -1 15 4 0 6 6 10 14 10 8 0 16 10 18 23 2 16 11 23 32
25 37 4 59 25 44 40 -8 8 0 16 29 27 32 13 40 20 36 36 -4 13 0 19 11 19 9 0
19 7 22 15 4 10 14 13 30 9 19 -5 24 -2 22 12 -3 39 2 54 20 54 24 1 52 24 52
44 0 9 8 16 18 16 23 0 42 19 42 41 0 17 27 29 67 29 17 0 21 5 18 25 -1 15 3
25 11 25 30 0 65 24 62 43 -2 15 4 20 26 23 31 3 49 21 41 42 -2 7 4 12 15 12
11 0 20 6 20 13 0 7 8 20 18 28 9 9 25 26 34 38 10 11 27 21 38 21 12 0 22 9
26 24 5 23 40 46 69 46 9 0 14 8 12 22 -2 18 6 24 38 34 29 8 40 16 38 29 -2
22 23 48 48 50 11 1 22 5 26 8 4 4 6 76 5 160 -2 229 10 665 18 637 l6 -25 7
25 c4 14 7 49 7 78 0 28 4 52 8 52 10 0 16 296 7 333 -7 26 -10 27 -71 27 -35
0 -64 -4 -64 -9z m-1507 -1358 c-7 -2 -13 -11 -13 -20 0 -20 -21 -38 -45 -38
-13 0 -20 -7 -20 -20 0 -11 -14 -28 -32 -40 -18 -11 -32 -23 -33 -27 0 -15
-40 -48 -56 -48 -9 0 -21 -13 -27 -30 -8 -21 -18 -30 -33 -30 -15 0 -27 -10
-36 -30 -16 -36 -30 -43 -66 -29 l-27 11 32 13 c18 7 42 30 55 49 13 20 32 39
43 42 23 8 39 23 48 47 4 10 17 17 32 17 24 0 27 4 29 40 1 8 12 17 26 20 14
3 31 18 38 33 9 18 21 27 37 27 13 0 27 5 30 10 3 6 12 10 18 9 9 0 9 -2 0 -6z
m-366 -343 c-1 -13 -16 -28 -44 -41 -29 -14 -40 -25 -36 -35 4 -10 -2 -17 -16
-21 -11 -3 -21 -10 -21 -15 0 -6 -7 -8 -15 -4 -10 4 -15 -1 -15 -14 0 -11 -7
-20 -15 -20 -8 0 -15 -7 -15 -15 0 -8 -4 -15 -9 -15 -5 0 -26 -16 -47 -35 -20
-19 -43 -35 -50 -35 -8 0 -16 -11 -20 -24 -7 -30 -62 -54 -70 -31 -7 18 20 47
38 40 9 -4 19 6 29 27 9 22 21 33 34 33 11 0 24 10 30 23 5 12 13 22 18 22 4
0 5 5 2 10 -3 6 6 15 20 20 30 12 55 34 55 49 0 10 13 15 32 12 4 0 14 12 23
27 9 15 31 34 48 43 43 22 46 22 44 -1z"/>
<path d="M5746 7830 c-10 -11 -23 -17 -28 -14 -6 4 -8 -2 -6 -12 5 -27 -29
-59 -47 -44 -21 18 -37 3 -24 -21 12 -24 -2 -46 -38 -60 -13 -5 -28 -20 -33
-34 -7 -17 -17 -25 -34 -25 -17 0 -27 -8 -34 -28 -7 -20 -17 -28 -37 -30 -37
-3 -48 -11 -42 -33 4 -14 -1 -21 -21 -25 -49 -10 -53 -14 -50 -36 3 -19 -3
-24 -32 -28 -29 -4 -35 -9 -35 -29 0 -14 -7 -27 -14 -29 -8 -3 -33 -24 -56
-48 -23 -24 -45 -44 -49 -44 -11 0 -31 -22 -39 -42 -3 -10 -15 -18 -26 -18
-24 0 -52 -26 -45 -43 3 -9 -9 -17 -33 -23 -31 -8 -38 -13 -36 -32 2 -16 -3
-22 -17 -22 -11 0 -20 -4 -20 -9 0 -5 -10 -11 -22 -13 -16 -2 -22 -9 -20 -20
2 -10 -2 -18 -8 -18 -5 0 -10 -7 -10 -15 0 -10 -10 -15 -30 -15 -27 0 -30 -3
-30 -30 0 -22 -5 -30 -18 -30 -20 0 -52 -29 -52 -48 0 -6 -18 -16 -40 -22 -32
-9 -39 -15 -37 -33 1 -13 -3 -21 -10 -20 -7 2 -24 -2 -38 -7 -19 -7 -25 -16
-23 -32 2 -19 -2 -24 -29 -26 -31 -3 -39 -14 -34 -45 1 -4 -12 -10 -29 -13
-16 -4 -30 -13 -30 -20 0 -8 -6 -11 -15 -8 -11 5 -13 2 -9 -10 9 -23 -23 -56
-53 -56 -14 0 -21 -4 -18 -10 3 -5 1 -10 -5 -10 -6 0 -10 -8 -8 -17 2 -12 -6
-19 -27 -23 -24 -4 -31 -11 -33 -33 -3 -22 -8 -27 -32 -27 -28 0 -57 -29 -44
-43 7 -7 -36 -31 -56 -32 -8 0 -16 -9 -18 -19 -5 -26 -27 -47 -51 -49 -12 -1
-21 -11 -25 -28 -3 -16 -14 -30 -27 -34 -24 -8 -60 -41 -56 -52 1 -5 -11 -9
-26 -11 -21 -3 -31 -11 -38 -31 -6 -16 -22 -31 -39 -38 -19 -7 -30 -18 -30
-31 0 -15 -11 -23 -45 -32 -36 -10 -44 -16 -40 -31 8 -25 -30 -50 -60 -39 -21
8 -22 6 -20 -23 3 -36 -9 -57 -34 -57 -9 0 -25 -13 -34 -30 -10 -16 -26 -30
-37 -30 -11 0 -22 -11 -29 -30 -7 -23 -16 -30 -35 -30 -15 0 -26 -5 -26 -11 0
-5 -5 -7 -11 -3 -7 4 -9 -2 -7 -17 2 -19 -3 -24 -34 -32 -28 -7 -38 -14 -38
-29 0 -12 -10 -23 -29 -29 -19 -7 -31 -19 -34 -34 -2 -14 -2 -261 1 -549 4
-510 0 -648 -19 -598 -13 34 -17 27 -16 -28 0 -28 4 -50 9 -50 4 0 8 -7 8 -16
0 -9 6 -14 13 -11 6 2 20 0 30 -5 24 -12 87 1 87 18 0 8 -8 14 -17 15 -10 0 6
8 36 18 42 14 55 23 56 39 1 11 16 34 33 50 18 17 32 35 32 41 0 6 13 14 30
17 33 7 52 25 48 45 -2 9 8 15 24 17 20 2 30 10 34 28 7 26 47 49 70 40 18 -7
28 12 15 28 -7 9 -4 17 11 31 14 11 23 14 26 7 7 -23 31 1 37 39 6 33 11 39
31 39 13 0 24 -4 24 -10 0 -5 7 -10 15 -10 8 0 15 7 15 15 0 8 -7 15 -15 15
-18 0 -18 5 -5 31 6 10 21 19 33 19 28 0 47 17 47 42 0 12 8 18 23 18 30 0 48
13 51 36 2 11 13 21 27 24 35 7 67 30 52 36 -24 10 -13 24 17 24 20 0 30 5 30
15 0 8 4 15 10 15 5 0 7 7 4 15 -4 8 -1 15 6 15 6 0 20 10 31 23 10 12 18 17
19 10 0 -6 9 -11 20 -10 22 1 27 13 8 20 -10 4 -10 8 1 15 7 5 11 14 7 20 -7
11 40 26 54 17 6 -4 11 3 11 14 1 12 2 27 3 33 0 7 15 15 31 18 21 4 31 12 33
26 2 15 14 23 40 30 27 7 38 15 42 34 4 18 14 27 35 30 23 5 29 11 28 27 -2
17 6 27 32 39 19 9 35 23 35 31 0 19 40 52 63 53 10 0 15 5 12 10 -3 6 -2 10
3 10 5 0 12 9 15 20 3 11 14 20 25 20 10 0 29 9 42 20 13 11 18 20 11 20 -7 0
-9 5 -6 10 3 6 14 10 24 10 19 0 51 29 48 45 -1 5 18 15 42 22 52 15 60 21 42
32 -11 7 -10 13 6 30 11 12 27 19 35 16 11 -4 17 2 21 24 4 19 16 34 34 43 15
7 32 23 38 36 9 20 14 23 48 26 20 2 37 24 31 40 -3 9 -1 17 5 17 47 6 69 19
64 39 -4 16 7 27 20 18 10 -7 47 27 47 43 0 19 37 42 53 32 4 -2 7 1 7 6 0 15
27 14 33 -1 4 -9 6 -10 6 -1 1 6 -6 19 -15 27 -15 15 -8 21 18 17 4 0 5 6 2
13 -3 9 3 17 17 21 27 9 43 23 52 48 3 9 15 17 25 17 23 0 44 22 40 41 -2 7
13 16 35 22 30 7 37 14 37 33 0 17 6 24 20 25 11 1 25 2 30 3 14 1 30 28 24
38 -3 5 2 11 10 14 9 3 13 11 9 18 -4 6 2 4 12 -4 11 -9 16 -10 11 -2 -4 7 -2
12 8 12 8 0 16 -4 18 -10 2 -5 13 -7 26 -4 l22 6 0 654 0 654 -57 -1 c-43 0
-63 -5 -77 -19z"/>
</g>
</svg>
